<svg width="0" height="0">
    <symbol xmlns="http://www.w3.org/2000/svg" viewBox="0 0 200 200" id="facebook">
        <path d="M35.5189 17H165.151C170.063 17 174.773 18.9511 178.246 22.4241C181.719 25.897 183.67 30.6074 183.67 35.5189V165.151C183.67 170.063 181.719 174.773 178.246 178.246C174.773 181.719 170.063 183.67 165.151 183.67H35.5189C30.6074 183.67 25.897 181.719 22.4241 178.246C18.9511 174.773 17 170.063 17 165.151V35.5189C17 30.6074 18.9511 25.897 22.4241 22.4241C25.897 18.9511 30.6074 17 35.5189 17V17ZM155.892 35.5189H132.743C124.148 35.5189 115.905 38.9333 109.827 45.011C103.749 51.0887 100.335 59.3318 100.335 67.9269V91.0756H81.8161V118.854H100.335V183.67H128.113V118.854H155.892V91.0756H128.113V72.5567C128.113 70.1009 129.089 67.7457 130.825 66.0093C132.562 64.2728 134.917 63.2972 137.373 63.2972H155.892V35.5189Z"></path>
    </symbol>
    <symbol xmlns="http://www.w3.org/2000/svg" viewBox="0 0 200 200" id="gmail">
        <path d="M166.667 33.3333H33.3334C24.1251 33.3333 16.7501 40.7916 16.7501 49.9999L16.6667 150C16.6667 159.208 24.1251 166.667 33.3334 166.667H166.667C175.875 166.667 183.333 159.208 183.333 150V49.9999C183.333 40.7916 175.875 33.3333 166.667 33.3333ZM166.667 150H33.3334V66.6666L100 108.333L166.667 66.6666V150ZM100 91.6666L33.3334 49.9999H166.667L100 91.6666Z"></path>
    </symbol>
    <symbol xmlns="http://www.w3.org/2000/svg" viewBox="0 0 200 200" id="insta">
        <path d="M65 16.6667H135C161.667 16.6667 183.333 38.3334 183.333 65.0001V135C183.333 147.819 178.241 160.113 169.177 169.177C160.113 178.241 147.819 183.333 135 183.333H65C38.3333 183.333 16.6667 161.667 16.6667 135V65.0001C16.6667 52.1813 21.7589 39.8875 30.8232 30.8233C39.8874 21.759 52.1812 16.6667 65 16.6667ZM63.3333 33.3334C55.3768 33.3334 47.7462 36.4941 42.1201 42.1202C36.494 47.7463 33.3333 55.3769 33.3333 63.3334V136.667C33.3333 153.25 46.75 166.667 63.3333 166.667H136.667C144.623 166.667 152.254 163.506 157.88 157.88C163.506 152.254 166.667 144.623 166.667 136.667V63.3334C166.667 46.7501 153.25 33.3334 136.667 33.3334H63.3333ZM143.75 45.8334C146.513 45.8334 149.162 46.9309 151.116 48.8844C153.069 50.8379 154.167 53.4874 154.167 56.2501C154.167 59.0128 153.069 61.6623 151.116 63.6158C149.162 65.5693 146.513 66.6668 143.75 66.6668C140.987 66.6668 138.338 65.5693 136.384 63.6158C134.431 61.6623 133.333 59.0128 133.333 56.2501C133.333 53.4874 134.431 50.8379 136.384 48.8844C138.338 46.9309 140.987 45.8334 143.75 45.8334ZM100 58.3334C111.051 58.3334 121.649 62.7233 129.463 70.5373C137.277 78.3513 141.667 88.9494 141.667 100C141.667 111.051 137.277 121.649 129.463 129.463C121.649 137.277 111.051 141.667 100 141.667C88.9493 141.667 78.3512 137.277 70.5372 129.463C62.7232 121.649 58.3333 111.051 58.3333 100C58.3333 88.9494 62.7232 78.3513 70.5372 70.5373C78.3512 62.7233 88.9493 58.3334 100 58.3334ZM100 75.0001C93.3696 75.0001 87.0107 77.634 82.3223 82.3224C77.6339 87.0108 75 93.3697 75 100C75 106.631 77.6339 112.989 82.3223 117.678C87.0107 122.366 93.3696 125 100 125C106.63 125 112.989 122.366 117.678 117.678C122.366 112.989 125 106.631 125 100C125 93.3697 122.366 87.0108 117.678 82.3224C112.989 77.634 106.63 75.0001 100 75.0001Z"></path>
    </symbol>
    <symbol xmlns="http://www.w3.org/2000/svg" viewBox="0 0 200 200" id="tik_tok">
        <path d="M107.867 13.4255V131.484C107.867 144.526 97.2917 155.092 84.2583 155.092C71.2167 155.092 60.65 144.517 60.65 131.484C60.65 118.442 71.225 107.876 84.2583 107.876V76.3922C53.8333 76.3922 29.1667 101.059 29.1667 131.484C29.1667 161.909 53.8333 186.576 84.2583 186.576C114.683 186.576 139.35 161.909 139.35 131.484V76.3922L141.008 77.2255C150.267 81.8589 160.475 84.2672 170.825 84.2672V52.7755L169.883 52.5422C151.933 48.0589 139.342 31.9255 139.342 13.4255H107.867Z"></path>
    </symbol>
    <symbol xmlns="http://www.w3.org/2000/svg" viewBox="0 0 200 200" id="telegram">
         <path d="M28.2307 89.8987C79.5175 66.8612 145.887 38.7737 155.048 34.8862C179.08 24.7112 186.454 26.6612 182.777 49.1945C180.137 65.3903 172.518 119.011 166.446 152.386C162.842 172.178 154.758 174.524 142.047 165.961C135.934 161.84 105.079 141.007 98.3828 136.115C92.2699 131.657 83.839 126.295 94.4123 115.732C98.1747 111.97 122.839 87.9237 142.055 69.207C144.573 66.7487 141.41 62.7112 138.505 64.682C112.604 82.2195 76.6936 106.561 72.1232 109.732C65.2186 114.52 58.5874 116.715 46.6838 113.224C37.6898 110.586 28.904 107.44 25.4843 106.24C12.3157 101.624 15.4416 95.6445 28.2307 89.8987Z"></path>
    </symbol>
    <symbol xmlns="http://www.w3.org/2000/svg" viewBox="0 0 200 200" id="youtube">
         <path d="M83.3333 125L126.583 100L83.3333 75.0001V125ZM179.667 59.7501C180.75 63.6667 181.5 68.9167 182 75.5834C182.583 82.2501 182.833 88.0001 182.833 93.0001L183.333 100C183.333 118.25 182 131.667 179.667 140.25C177.583 147.75 172.75 152.583 165.25 154.667C161.333 155.75 154.167 156.5 143.167 157C132.333 157.583 122.417 157.833 113.25 157.833L100 158.333C65.0833 158.333 43.3333 157 34.75 154.667C27.25 152.583 22.4166 147.75 20.3333 140.25C19.25 136.333 18.5 131.083 18 124.417C17.4166 117.75 17.1666 112 17.1666 107L16.6666 100C16.6666 81.7501 18 68.3334 20.3333 59.7501C22.4166 52.2501 27.25 47.4167 34.75 45.3334C38.6666 44.2501 45.8333 43.5001 56.8333 43.0001C67.6666 42.4167 77.5833 42.1667 86.75 42.1667L100 41.6667C134.917 41.6667 156.667 43.0001 165.25 45.3334C172.75 47.4167 177.583 52.2501 179.667 59.7501Z"></path>
    </symbol>
    <symbol xmlns="http://www.w3.org/2000/svg" viewBox="0 0 200 200" id="linked_in">
         <path d="M165.151 17C170.063 17 174.773 18.9511 178.246 22.4241C181.719 25.897 183.67 30.6074 183.67 35.5189V165.151C183.67 170.063 181.719 174.773 178.246 178.246C174.773 181.719 170.063 183.67 165.151 183.67H35.5189C30.6074 183.67 25.897 181.719 22.4241 178.246C18.9511 174.773 17 170.063 17 165.151V35.5189C17 30.6074 18.9511 25.897 22.4241 22.4241C25.897 18.9511 30.6074 17 35.5189 17H165.151ZM160.521 160.521V111.446C160.521 103.441 157.341 95.7627 151.68 90.1018C146.019 84.4408 138.341 81.2605 130.336 81.2605C122.465 81.2605 113.298 86.0755 108.854 93.2978V83.0198H83.0198V160.521H108.854V114.872C108.854 107.743 114.595 101.909 121.724 101.909C125.162 101.909 128.46 103.275 130.891 105.706C133.322 108.137 134.688 111.434 134.688 114.872V160.521H160.521ZM52.9266 68.4825C57.0523 68.4825 61.009 66.8436 63.9263 63.9263C66.8436 61.009 68.4825 57.0523 68.4825 52.9266C68.4825 44.3154 61.5379 37.2782 52.9266 37.2782C48.7764 37.2782 44.7962 38.9269 41.8615 41.8615C38.9269 44.7962 37.2782 48.7764 37.2782 52.9266C37.2782 61.5379 44.3154 68.4825 52.9266 68.4825ZM65.7973 160.521V83.0198H40.1486V160.521H65.7973Z"></path>
    </symbol>
    </svg>
</svg>