  
<svg xmlns="http://www.w3.org/2000/svg"  id="UKD_LOGO" data-name="UKD_LOGO" viewBox="0 0 92.8 128">
  <defs><style>.fill{fill:#901825;}</style></defs>
  <polygon style="fill:white" class="fill" points="30.15 30.13 46.17 13.9 62.67 30.13 76.55 30.13 92.81 13.87 92.81 0 69.61 23.2 46.17 0.03 23.21 23.2 0.02 0 0.02 13.87 16.28 30.13 30.15 30.13"/>
  <polygon style="fill:white" class="fill" points="37.67 30.13 46.41 30.13 55.15 30.13 46.17 21.53 37.67 30.13"/>
  <polygon style="fill:white" class="fill" points="0.02 21.4 0.02 30.13 8.76 30.13 0.02 21.4"/>
  <polygon style="fill:white" class="fill" points="92.81 21.4 92.81 30.13 84.07 30.13 92.81 21.4"/>
  <polygon style="fill:white" class="fill" points="0.02 36.81 0.02 46.17 8.16 50.22 46.41 66.81 92.81 46.51 92.81 36.81 46.4 56.88 0.02 36.81"/>
  <path style="fill:white" class="fill" d="M92.81,53.25,46.4,73.51,0,53.25v54.49l46.4,20.1h0l46.4-20.1ZM42.24,117.14,8.34,102.45V65.89l33.89,14.7Zm42.23-14.69-33.9,14.68V80.57l33.9-14.68Z"/>
</svg>